<svg width="62" height="62" fill="none" xmlns="http://www.w3.org/2000/svg"><g clip-path="url(#a)"><path d="M51.234.72H10.199C4.566.72 0 5.286 0 10.919v39.5c0 5.632 4.566 10.198 10.199 10.198h41.035c5.633 0 10.199-4.566 10.199-10.199v-39.5C61.433 5.287 56.867.72 51.234.72z" fill="#49021F"/><path d="M22.31 16.39v26.25c0 .276-.124.413-.371.413h-4.987c-.22 0-.33-.137-.33-.412V16.389c0-.22.124-.33.372-.33h4.986a.293.293 0 01.332.296l-.002.034zm15.019 27.072l-.266.003a12.767 12.767 0 01-5.501-1.154 8.748 8.748 0 01-3.854-3.482c-.911-1.514-1.378-3.401-1.4-5.661v-.17a10.76 10.76 0 011.4-5.4c.937-1.63 2.301-2.973 3.947-3.883l.133-.073c1.786-.988 3.943-1.483 6.47-1.483h.054l.118.003.134.005.15.008.165.01.18.013.407.034.111.01v-8.119c0-.192.083-.289.248-.289h5.192a.217.217 0 01.247.248v24.355c.002.51.023 1.018.062 1.525l.04.532.034.494.03.458a.426.426 0 01-.248.412c-1.34.559-2.735.973-4.162 1.236a22.34 22.34 0 01-3.691.368zm2.248-5.107v-11.25a4.095 4.095 0 00-.68-.124 8.223 8.223 0 00-.844-.042c-1-.01-1.989.216-2.885.66a5.633 5.633 0 00-2.164 1.896c-.563.824-.845 1.91-.845 3.255-.02.899.127 1.793.433 2.638.249.68.643 1.3 1.154 1.813.49.473 1.082.826 1.73 1.03a6.784 6.784 0 002.123.33c.385 0 .742-.014 1.072-.041.263-.02.524-.063.78-.13l.126-.035z" fill="#F36"/></g><defs><clipPath id="a"><path fill="#fff" d="M0 0H61.433V61.433H0z"/></clipPath></defs></svg>