<svg width="62" height="62" fill="none" xmlns="http://www.w3.org/2000/svg"><g clip-path="url(#a)"><path d="M47.035 0H14.398C6.446 0 0 6.446 0 14.398v32.637c0 7.952 6.446 14.398 14.398 14.398h32.637c7.952 0 14.398-6.447 14.398-14.398V14.398C61.433 6.446 54.986 0 47.035 0z" fill="#00005B"/><path d="M25.235 37.464h-9.522l-1.946 6.041a.448.448 0 01-.486.359H8.469c-.282 0-.359-.154-.282-.461l8.242-23.626c.077-.256.154-.486.256-.794.103-.537.154-1.1.154-1.663-.026-.128.077-.256.205-.282h6.63c.178 0 .306.077.332.205l9.343 26.109c.077.281 0 .41-.256.41h-5.35c-.179.025-.358-.103-.41-.282l-2.098-6.143v.127zm-8.038-5.093H23.7a36.445 36.445 0 00-.589-1.844c-.23-.69-.46-1.433-.691-2.2-.256-.794-.486-1.562-.742-2.356a55.603 55.603 0 01-.692-2.278c-.204-.716-.383-1.382-.563-1.997h-.05A31.39 31.39 0 0119.5 25c-.384 1.228-.768 2.508-1.178 3.788-.332 1.305-.742 2.508-1.126 3.584zm31.229 2.79H40.31c.103.793.359 1.587.794 2.278.46.69 1.1 1.228 1.868 1.535a7.958 7.958 0 003.277.64c.896-.025 1.792-.102 2.662-.281.78-.102 1.546-.3 2.278-.589.128-.102.205-.051.205.205v3.916c0 .103-.026.205-.051.308a.595.595 0 01-.18.179 10.94 10.94 0 01-2.56.768c-1.197.23-2.415.333-3.634.307-1.945 0-3.584-.307-4.915-.896a8.62 8.62 0 01-3.225-2.432 9.394 9.394 0 01-1.766-3.353 13.066 13.066 0 01-.538-3.737 13 13 0 01.64-4.07 10.442 10.442 0 011.92-3.507A9.28 9.28 0 0140.183 24c1.203-.588 2.637-.793 4.275-.793a9.248 9.248 0 013.968.793 7.049 7.049 0 012.687 2.048c.666.87 1.203 1.843 1.536 2.918.333 1.024.486 2.074.486 3.123 0 .614-.025 1.152-.05 1.638-.052.487-.078.845-.103 1.075-.026.18-.18.333-.359.333-.153 0-.435.026-.844.051-.41.051-.896.077-1.485.077-.589 0-1.203-.102-1.868-.102zm-8.115-3.737h5.401c.666 0 1.152 0 1.46-.026.204-.026.409-.077.588-.205v-.256a2.943 2.943 0 00-.153-.947 3.388 3.388 0 00-3.328-2.355 3.605 3.605 0 00-3.405 1.946 5.303 5.303 0 00-.563 1.843z" fill="#99F"/></g><defs><clipPath id="a"><path fill="#fff" d="M0 0H61.433V61.433H0z"/></clipPath></defs></svg>