<svg width="62" height="62" fill="none" xmlns="http://www.w3.org/2000/svg"><g clip-path="url(#a)"><rect width="61.433" height="61.433" rx="16" fill="#EBEBEB"/><path d="M39.117 4.543c.467.579.705 1.36 1.18 2.922L50.69 41.607A43.23 43.23 0 0038.264 37.4l-6.766-22.867a.88.88 0 00-1.69.002l-6.684 22.853c-4.351.76-8.56 2.18-12.48 4.213L21.086 7.458c.478-1.56.716-2.34 1.183-2.92a3.85 3.85 0 011.556-1.15c.688-.276 1.505-.276 3.137-.276h7.46c1.632 0 2.45 0 3.14.278a3.832 3.832 0 011.555 1.153z" fill="url(#b)"/><path d="M40.36 43.23c-1.713 1.467-5.133 2.466-9.072 2.466-4.833 0-8.886-1.506-9.96-3.53-.385 1.16-.471 2.488-.471 3.337 0 0-.253 4.164 2.643 7.06a2.723 2.723 0 012.723-2.722c2.577 0 2.576 2.248 2.574 4.074v.161a6.654 6.654 0 004.1 6.146 5.578 5.578 0 01-.563-2.447c0-2.643 1.55-3.626 3.354-4.77 1.435-.909 3.028-1.92 4.125-3.946a7.446 7.446 0 00.9-3.556c0-.771-.119-1.538-.353-2.273z" fill="url(#c)"/><path d="M40.36 43.23c-1.713 1.467-5.133 2.466-9.072 2.466-4.833 0-8.886-1.506-9.96-3.53-.385 1.16-.471 2.488-.471 3.337 0 0-.253 4.164 2.643 7.06a2.723 2.723 0 012.723-2.722c2.577 0 2.576 2.248 2.574 4.074v.161a6.654 6.654 0 004.1 6.146 5.578 5.578 0 01-.563-2.447c0-2.643 1.55-3.626 3.354-4.77 1.435-.909 3.028-1.92 4.125-3.946a7.446 7.446 0 00.9-3.556c0-.771-.119-1.538-.353-2.273z" fill="#FF5D01"/></g><defs><linearGradient id="b" x1="42.379" y1="1.301" x2="30.666" y2="41.606" gradientUnits="userSpaceOnUse"><stop stop-color="#000014"/><stop offset="1" stop-color="#150426"/></linearGradient><linearGradient id="c" x1="48.075" y1="31.314" x2="37.931" y2="52.55" gradientUnits="userSpaceOnUse"><stop stop-color="#FF1639"/><stop offset="1" stop-color="#FF1639" stop-opacity="0"/></linearGradient><clipPath id="a"><path fill="#fff" d="M0 0H61.433V61.433H0z"/></clipPath></defs></svg>