<svg width="62" height="62" fill="none" xmlns="http://www.w3.org/2000/svg"><g clip-path="url(#a)"><path d="M24.1 33.403c.224-3.985 2.175-7.496 5.119-9.984 2.887-2.445 6.773-3.939 11.012-3.939 4.236 0 8.122 1.494 11.01 3.939 2.942 2.488 4.894 5.999 5.12 9.98.223 4.094-1.423 7.898-4.31 10.717-2.944 2.868-7.131 4.667-11.82 4.667-4.688 0-8.884-1.8-11.826-4.667-2.889-2.82-4.53-6.623-4.305-10.713z" fill="#fff"/><path d="M31.957 33.758c.114-2.044 1.115-3.846 2.626-5.123 1.481-1.254 3.475-2.02 5.65-2.02 2.174 0 4.168.766 5.65 2.02 1.51 1.277 2.51 3.079 2.626 5.121.115 2.101-.73 4.053-2.211 5.5-1.51 1.47-3.659 2.394-6.065 2.394-2.405 0-4.558-.923-6.067-2.395-1.483-1.446-2.325-3.398-2.21-5.497z" fill="#265787"/><path d="M18.816 37.959c.014.801.27 2.36.654 3.576.806 2.576 2.173 4.959 4.076 7.059 1.952 2.158 4.357 3.892 7.134 5.123 2.92 1.292 6.082 1.951 9.367 1.946a22.952 22.952 0 009.362-1.979c2.777-1.243 5.18-2.984 7.13-5.143 1.9-2.11 3.266-4.496 4.074-7.072.407-1.301.663-2.622.766-3.947.101-1.308.059-2.622-.127-3.92a18.222 18.222 0 00-2.6-7.114c-1.24-2.001-2.839-3.753-4.74-5.228l.004-.003L34.726 6.52c-.018-.013-.033-.027-.051-.039-1.259-.966-3.376-.963-4.761.006-1.4.98-1.56 2.6-.315 3.62l-.005.006 8.005 6.51-24.397.025h-.032c-2.017.003-3.955 1.326-4.34 2.997-.393 1.704.976 3.117 3.073 3.124l-.003.008 12.365-.024L2.2 39.69c-.029.02-.059.042-.085.063C.034 41.348-.639 44 .672 45.676c1.33 1.706 4.16 1.709 6.263.01l12.042-9.856s-.175 1.33-.161 2.129zm30.945 4.455c-2.48 2.528-5.955 3.962-9.714 3.97-3.764.006-7.238-1.415-9.72-3.938a11.557 11.557 0 01-2.652-4.153 10.783 10.783 0 01-.609-4.64c.131-1.55.593-3.029 1.33-4.367a12.036 12.036 0 012.951-3.51c2.412-1.965 5.483-3.03 8.695-3.034 3.215-.004 6.283 1.05 8.698 3.01a11.99 11.99 0 012.948 3.498 10.96 10.96 0 011.335 4.366 10.808 10.808 0 01-.611 4.636 11.61 11.61 0 01-2.65 4.162z" fill="#EA7600"/></g><defs><clipPath id="a"><path fill="#fff" d="M0 0H61.433V61.433H0z"/></clipPath></defs></svg>