<svg width="62" height="62" fill="none" xmlns="http://www.w3.org/2000/svg"><g clip-path="url(#a)"><path d="M47.035 0H14.398C6.446 0 0 6.446 0 14.398v32.637c0 7.952 6.446 14.398 14.398 14.398h32.637c7.952 0 14.398-6.447 14.398-14.398V14.398C61.433 6.446 54.986 0 47.035 0z" fill="#0277BD"/><path d="M12.9 24.633l.686 7.665H30.74v-7.665H12.9zM30.74 9.12H11.518l.697 7.665h18.523V9.12zm0 43.397V44.54l-.034.009-8.537-2.305-.546-6.114h-7.695l1.074 12.036 15.702 4.358.035-.01z" fill="#EBEBEB"/><path d="M40.152 32.298l-.89 9.942-8.55 2.307v7.975l15.715-4.355.115-1.296 1.801-20.18.187-2.058L49.914 9.12H30.713v7.665h10.8l-.697 7.85H30.713v7.664h9.439z" fill="#fff"/></g><defs><clipPath id="a"><path fill="#fff" d="M0 0H61.433V61.433H0z"/></clipPath></defs></svg>