<svg width="62" height="62" fill="none" xmlns="http://www.w3.org/2000/svg"><path d="M30.716 1.536a29.18 29.18 0 100 58.361 29.18 29.18 0 000-58.361z" fill="#37474F"/><path d="M32.35 32.509l3.7 9.723c.839 1.138 1.836 2.133 3.024 2.808 3.715 2.108 8.447.892 10.568-2.717 0 0-16.868-9.49-17.292-9.814z" fill="#FF7043"/><path d="M32.35 32.509c.496.198 17.292 9.812 17.292 9.812 2.12-3.61.826-8.246-2.89-10.354-1.189-.675-2.563-1.025-3.986-1.17L32.35 32.508z" fill="#F16461"/><path d="M45.294 34.625c-.447-.253-.929-.47-1.426-.668a7.381 7.381 0 01-.971 4.539c-.84 1.43-2.089 2.468-3.512 3.094.423.324.855.627 1.302.88 4.655 2.642 7.68 2.018 8.954-.147 1.273-2.167.308-5.056-4.347-7.698z" fill="#FF5252"/><path d="M36.344 38.601c.904 1.09 1.929 2.138 3.042 2.988 1.424-.627 2.674-1.665 3.512-3.095a7.38 7.38 0 00.971-4.538c-1.305-.523-2.741-.871-4.153-1.096a5.939 5.939 0 01-.806 3.37 6.075 6.075 0 01-2.566 2.371z" fill="#FF855F"/><path d="M39.386 41.59c-1.113-.85-2.138-1.898-3.042-2.987a6.222 6.222 0 01-2.063.59c.487 1.049 1.072 2.093 1.77 3.04a7.838 7.838 0 003.335-.643z" fill="#FF8A65"/><path d="M39.715 32.862c1.413.226 2.849.573 4.153 1.095a7.454 7.454 0 00-1.101-3.16c-1.184-.122-2.396-.096-3.564.013.288.652.47 1.343.512 2.052z" fill="#FF8A80"/><path d="M38.908 36.23a5.91 5.91 0 00.807-3.37c-3.797-.605-7.365-.351-7.365-.351s1.56 3.164 3.994 6.093a6.06 6.06 0 002.564-2.372z" fill="#FFCCBC"/><path d="M36.343 38.602c-2.432-2.93-3.993-6.093-3.993-6.093a.725.725 0 00-.083.519c.235 1.14.845 3.654 2.012 6.165a6.234 6.234 0 002.064-.591z" fill="#FFAB91"/><path d="M39.203 30.81c-2.796.261-5.315 1-6.436 1.37a.743.743 0 00-.415.33s3.568-.253 7.364.352a5.986 5.986 0 00-.513-2.052z" fill="#FFCDD2"/><path d="M29.06 32.509c-.423.324-17.29 9.812-17.29 9.812 2.122 3.61 6.852 4.826 10.569 2.717 1.188-.674 2.185-1.67 3.024-2.807l3.698-9.722z" fill="#C6CF47"/><path d="M29.06 32.51l-10.415-1.713c-1.422.144-2.798.496-3.986 1.17-3.715 2.109-5.01 6.744-2.89 10.354 0 0 16.796-9.612 17.292-9.812z" fill="#E1EB8A"/><path d="M20.724 42.47c.448-.254.879-.558 1.303-.88-1.424-.627-2.674-1.665-3.512-3.095a7.381 7.381 0 01-.971-4.538c-.496.198-.98.414-1.427.668-4.655 2.642-5.618 5.529-4.346 7.696 1.273 2.167 4.299 2.79 8.953.149z" fill="#DCE775"/><path d="M21.697 32.862c-1.413.226-2.85.573-4.153 1.095a7.382 7.382 0 00.97 4.538c.84 1.43 2.09 2.468 3.513 3.095 1.113-.85 2.138-1.898 3.042-2.987a6.07 6.07 0 01-2.564-2.372 5.93 5.93 0 01-.808-3.37z" fill="#FFF59D"/><path d="M17.544 33.957c1.305-.522 2.741-.87 4.153-1.095.043-.71.224-1.4.511-2.052-1.167-.109-2.38-.133-3.563-.014a7.462 7.462 0 00-1.101 3.161z" fill="#E6EE9C"/><path d="M25.07 38.601c-.905 1.09-1.93 2.138-3.043 2.987a7.795 7.795 0 003.336.644c.699-.948 1.282-1.992 1.77-3.041a6.186 6.186 0 01-2.064-.59z" fill="#FFD740"/><path d="M22.504 36.23a6.072 6.072 0 002.565 2.371c2.433-2.928 3.993-6.092 3.993-6.092s-3.567-.254-7.364.352a5.912 5.912 0 00.806 3.37z" fill="#FFF9C4"/><path d="M21.697 32.862c3.796-.605 7.364-.352 7.364-.352a.748.748 0 00-.415-.33c-1.122-.37-3.641-1.107-6.436-1.37a5.952 5.952 0 00-.513 2.052z" fill="#F0F4C3"/><path d="M27.132 39.191c1.167-2.511 1.777-5.024 2.012-6.165a.725.725 0 00-.083-.519s-1.56 3.164-3.993 6.093a6.174 6.174 0 002.064.591z" fill="#FFE082"/><path d="M57.394 37.864a27.442 27.442 0 01-2.756 6.664l2.659 1.534a30.457 30.457 0 003.06-7.404l-2.963-.794z" fill="#F44336"/><path d="M11.169 50.265l-2.172 2.171c1.89 1.89 4.044 3.513 6.374 4.861l1.534-2.658a27.752 27.752 0 01-5.736-4.374z" fill="#FFD740"/><path d="M3.072 30.717H0c0 2.752.396 5.404 1.075 7.943l2.964-.794c-.611-2.285-.967-4.674-.967-7.15z" fill="#AED581"/><path d="M6.795 44.528l-2.659 1.535a30.88 30.88 0 004.861 6.373l2.172-2.171a27.753 27.753 0 01-4.374-5.737z" fill="#FFF176"/><path d="M4.04 37.864l-2.965.796a30.547 30.547 0 003.061 7.404l2.659-1.534a27.453 27.453 0 01-2.756-6.666z" fill="#DCE775"/><path d="M16.905 54.639l-1.535 2.658a30.523 30.523 0 007.405 3.061l.794-2.964a27.414 27.414 0 01-6.664-2.755z" fill="#FFCA28"/><path d="M44.528 54.639l1.534 2.658c2.33-1.348 4.483-2.97 6.374-4.86l-2.172-2.172a27.752 27.752 0 01-5.736 4.374z" fill="#FF7043"/><path d="M37.864 57.394l.794 2.964a30.548 30.548 0 007.404-3.06l-1.534-2.66a27.414 27.414 0 01-6.664 2.756z" fill="#FB8C00"/><path d="M50.264 50.265l2.172 2.171c1.89-1.89 3.513-4.043 4.86-6.373l-2.658-1.535a27.751 27.751 0 01-4.374 5.737z" fill="#FF5252"/><path d="M23.569 57.394l-.794 2.964c2.537.679 5.19 1.075 7.942 1.075v-3.072c-2.476 0-4.864-.356-7.148-.967z" fill="#FFB74D"/><path d="M30.716 58.361v3.072c2.753 0 5.405-.396 7.944-1.075l-.794-2.964c-2.286.611-4.674.967-7.15.967z" fill="#FFA726"/><path d="M23.569 4.04l-.796-2.964a30.547 30.547 0 00-7.404 3.06l1.534 2.659A27.453 27.453 0 0123.57 4.04z" fill="#64B5F6"/><path d="M57.394 23.569l2.964-.794a30.546 30.546 0 00-3.061-7.405l-2.659 1.535a27.417 27.417 0 012.756 6.664z" fill="#9575CD"/><path d="M54.638 16.905l2.659-1.534c-1.348-2.33-2.97-4.483-4.86-6.374l-2.173 2.172a27.751 27.751 0 014.374 5.736z" fill="#7986CB"/><path d="M50.264 11.168l2.172-2.171c-1.89-1.891-4.044-3.513-6.374-4.861l-1.534 2.658a27.75 27.75 0 015.736 4.374z" fill="#8C9EFF"/><path d="M44.528 6.795l1.534-2.659a30.39 30.39 0 00-7.402-3.06l-.794 2.964a27.43 27.43 0 016.662 2.755z" fill="#82B1FF"/><path d="M58.361 30.717h3.072c0-2.752-.397-5.405-1.075-7.944l-2.964.794c.61 2.286.967 4.674.967 7.15z" fill="#F06292"/><path d="M4.04 23.569l-2.965-.796C.396 25.313 0 27.965 0 30.717h3.072c0-2.476.356-4.864.967-7.148z" fill="#9CCC65"/><path d="M57.394 37.864l2.964.794c.678-2.537 1.075-5.19 1.075-7.941H58.36c0 2.475-.356 4.864-.967 7.147z" fill="#EF5350"/><path d="M37.864 4.04l.794-2.965C36.121.396 33.468 0 30.716 0v3.072c2.476 0 4.864.356 7.148.967z" fill="#64B5F6"/><path d="M11.169 11.169L8.997 8.997c-1.89 1.89-3.512 4.044-4.86 6.374l2.658 1.534a27.753 27.753 0 014.374-5.736z" fill="#68C1B8"/><path d="M6.795 16.905L4.136 15.37a30.388 30.388 0 00-3.06 7.403l2.963.794a27.432 27.432 0 012.756-6.662z" fill="#81C784"/><path d="M16.905 6.794L15.37 4.136c-2.33 1.348-4.484 2.97-6.374 4.86l2.172 2.172a27.75 27.75 0 015.736-4.374z" fill="#4DB6AC"/><path d="M30.717 3.072V0c-2.753 0-5.405.396-7.944 1.075l.794 2.964c2.286-.61 4.674-.967 7.15-.967z" fill="#4BA9F5"/><path d="M30.718 10.75l-.002 19.967a.75.75 0 00.498-.192c1.703-1.504 7.181-6.755 7.181-12.004 0-4.292-3.437-7.769-7.677-7.77z" fill="#7986CB"/><path d="M30.716 10.75c-.001 0-.001 0 0 0-4.24 0-7.679 3.48-7.679 7.77 0 5.25 5.479 10.501 7.182 12.005a.75.75 0 00.497.192V10.75z" fill="#26A69A"/><path d="M30.716 10.75c-2.546 0-4.607 2.305-4.607 7.68 0 5.514 4.607 12.287 4.607 12.287s4.608-6.773 4.608-12.287c0-5.375-2.063-7.68-4.608-7.68z" fill="#82B1FF"/><path d="M30.716 10.75a7.02 7.02 0 011.532.162c2.65.604 4.612 2.714 4.612 5.214 0 1.398-.63 2.673-1.628 3.625.015-.108-4.084-8.954-4.516-9z" fill="#4DB6AC"/><path d="M33.512 25.587a36.06 36.06 0 01-2.795 5.13s-1.505-2.212-2.796-5.13a7.724 7.724 0 002.796.522c.983 0 1.92-.184 2.795-.522z" fill="#90CAF9"/><path d="M26.201 19.75c-1.014-.936-1.628-2.226-1.628-3.624 0-2.595 2.104-4.76 4.9-5.268.245-.046.984-.107 1.243-.107-2.319.276-4.576 8.554-4.515 9z" fill="#8DD0CA"/><path d="M35.324 18.43c0 .215 0 .445-.03.66 0 .215-.032.446-.062.66-1.121 1.076-2.734 1.752-4.516 1.752-1.781 0-3.394-.676-4.515-1.751a9.72 9.72 0 01-.092-1.321c0-5.037 1.812-7.372 4.131-7.648.154-.031.323-.031.476-.031.154 0 .323 0 .476.03.43.047.86.17 1.245.384.122.062.245.139.368.216.123.076.246.168.369.291.107.092.215.185.307.292.353.369.676.83.921 1.398.077.169.154.338.215.507.077.184.139.368.2.568.061.169.108.353.138.537.062.246.123.492.154.753.061.292.107.614.138.937.046.537.077 1.136.077 1.766z" fill="#80CBC4"/><path d="M38.365 19.12c-.384 5.054-5.514 9.968-7.157 11.412a.724.724 0 01-.492.184s1.505-2.211 2.796-5.13a7.747 7.747 0 004.853-6.465z" fill="#9FA8DA"/><path d="M30.716 30.716a.725.725 0 01-.491-.184c-1.643-1.444-6.773-6.358-7.157-11.411a7.747 7.747 0 004.853 6.466 36.057 36.057 0 002.796 5.13z" fill="#81C784"/></svg>