<svg width="62" height="62" fill="none" xmlns="http://www.w3.org/2000/svg"><g clip-path="url(#a)"><path d="M47.035 0H14.398C6.446 0 0 6.446 0 14.398v32.637c0 7.952 6.446 14.398 14.398 14.398h32.637c7.952 0 14.398-6.447 14.398-14.398V14.398C61.433 6.446 54.986 0 47.035 0z" fill="#E14E1D"/><path d="M11.519 9.119l2.066 23.18h26.567l-.891 9.941-8.554 2.313-8.538-2.31-.571-6.383h-7.694l1.1 12.306 15.7 4.36 15.721-4.36 2.108-23.532H20.595l-.701-7.85h29.334l.686-7.665H11.52z" fill="#fff"/><path d="M30.716 9.119H11.52l2.066 23.18h17.131v-7.665h-10.12l-.702-7.85h10.822V9.12zm0 35.431l-.01.003-8.537-2.31-.571-6.383h-7.694l1.1 12.306 15.7 4.36.013-.002V44.55z" fill="#EBEBEB"/></g><defs><clipPath id="a"><path fill="#fff" d="M0 0H61.433V61.433H0z"/></clipPath></defs></svg>