<svg width="62" height="62" fill="none" xmlns="http://www.w3.org/2000/svg"><g clip-path="url(#a)"><path d="M47.035 0H14.398C6.446 0 0 6.446 0 14.398v32.637c0 7.952 6.446 14.398 14.398 14.398h32.637c7.952 0 14.398-6.447 14.398-14.398V14.398C61.433 6.446 54.986 0 47.035 0z" fill="#300"/><path d="M29.692 36.556H20.17l-1.945 6.015a.448.448 0 01-.486.358h-4.813c-.281 0-.358-.153-.281-.46l8.242-23.729c.077-.256.154-.537.256-.845a8.93 8.93 0 00.154-1.663c-.026-.128.076-.256.204-.282h6.63c.205 0 .307.077.333.205l9.343 26.365c.076.281 0 .41-.256.41H32.2c-.18.025-.358-.103-.41-.282l-2.099-6.092zm-8.037-5.196h6.502a36.253 36.253 0 00-.589-1.843c-.23-.692-.46-1.434-.691-2.202-.256-.793-.486-1.561-.743-2.355a55.706 55.706 0 01-.69-2.278c-.205-.716-.385-1.382-.564-1.996h-.051c-.23 1.1-.512 2.201-.87 3.302-.384 1.228-.768 2.508-1.178 3.788a50.241 50.241 0 01-1.126 3.584zm21.86-10.93a3.167 3.167 0 01-2.278-.896 3.327 3.327 0 01-.87-2.355c-.026-.87.307-1.69.92-2.278a3.279 3.279 0 012.28-.896c.998 0 1.765.307 2.328.896.568.62.87 1.438.845 2.278a3.24 3.24 0 01-.896 2.355 3.01 3.01 0 01-2.33.896zm-2.867 22.218v-19.71c0-.256.102-.358.333-.358h5.068c.23 0 .333.128.333.358v19.71c0 .281-.103.41-.333.41h-5.017c-.256 0-.384-.154-.384-.41z" fill="#FF9A00"/></g><defs><clipPath id="a"><path fill="#fff" d="M0 0H61.433V61.433H0z"/></clipPath></defs></svg>