<svg width="62" height="62" fill="none" xmlns="http://www.w3.org/2000/svg"><g clip-path="url(#a)"><path d="M47.035 0H14.398C6.446 0 0 6.446 0 14.398v32.637c0 7.952 6.446 14.398 14.398 14.398h32.637c7.952 0 14.398-6.447 14.398-14.398V14.398C61.433 6.446 54.986 0 47.035 0z" fill="#001E36"/><path d="M13.822 42.725v-26.34c0-.179.077-.281.256-.281.436 0 .845 0 1.434-.026.614-.026 1.254-.026 1.945-.051.691-.026 1.434-.026 2.227-.051.793-.026 1.561-.026 2.33-.026 2.098 0 3.839.256 5.273.794a9.141 9.141 0 013.43 2.099 8.152 8.152 0 011.868 2.918 9.8 9.8 0 01.589 3.327c0 2.202-.512 4.019-1.536 5.453a8.77 8.77 0 01-4.121 3.122c-1.74.64-3.66.87-5.76.87-.614 0-1.023 0-1.28-.025-.255-.026-.614-.026-1.1-.026V42.7c.026.18-.102.333-.282.358H14.13c-.205 0-.308-.102-.308-.332zm5.58-21.681v8.6c.359.026.692.052.999.052h1.357c.998 0 1.996-.154 2.943-.461.82-.23 1.536-.717 2.1-1.357.537-.64.793-1.51.793-2.636.024-.8-.18-1.59-.59-2.278a3.713 3.713 0 00-1.79-1.46c-.948-.383-1.972-.537-3.021-.511-.666 0-1.255 0-1.74.025-.513-.025-.871 0-1.05.026zm29.744 7.04a9.06 9.06 0 00-2.457-.871c-.947-.205-1.894-.333-2.867-.333a5.16 5.16 0 00-1.536.18 1.315 1.315 0 00-.793.511c-.128.205-.205.46-.205.691 0 .23.102.46.256.666.23.281.538.512.87.691.594.307 1.2.59 1.818.845 1.382.46 2.713 1.1 3.942 1.868a5.954 5.954 0 012.022 2.125c.41.819.614 1.715.589 2.636a5.957 5.957 0 01-.999 3.405 6.415 6.415 0 01-2.867 2.278c-1.254.537-2.79.819-4.633.819-1.177 0-2.329-.102-3.48-.333a10.319 10.319 0 01-2.612-.819c-.179-.102-.307-.282-.282-.486v-4.454c0-.077.026-.18.103-.23.077-.052.154-.026.23.025.999.589 2.048.998 3.175 1.254.972.256 1.996.384 3.02.384.973 0 1.664-.128 2.125-.358.409-.18.69-.614.69-1.075 0-.358-.204-.691-.614-1.024-.41-.333-1.254-.717-2.508-1.203a15.66 15.66 0 01-3.635-1.843 6.628 6.628 0 01-1.945-2.176 5.49 5.49 0 01-.59-2.61c0-1.101.308-2.151.871-3.098a6.312 6.312 0 012.688-2.355c1.203-.614 2.713-.896 4.53-.896 1.05 0 2.125.077 3.175.23.767.103 1.51.308 2.2.59.103.025.206.127.257.23.026.102.05.204.05.307v4.172a.315.315 0 01-.127.256c-.23.051-.358.051-.46 0z" fill="#31A8FF"/></g><defs><clipPath id="a"><path fill="#fff" d="M0 0H61.433V61.433H0z"/></clipPath></defs></svg>