<svg width="62" height="62" fill="none" xmlns="http://www.w3.org/2000/svg"><g clip-path="url(#a)"><path fill="#EBEBEB" d="M22.683 22.683H58.598V58.598H22.683z"/><path fill="#EBEBEB" d="M2.835 2.835H38.75V38.75H2.835z"/><path d="M14.55 30.716a1.618 1.618 0 01-1.616-1.617V11.316c0-.893.722-1.617 1.615-1.617h6.067c1.177 0 2.275.12 3.294.356 1.042.215 1.94.588 2.695 1.126.776.517 1.385 1.216 1.83 2.099.444.857.666 1.92.666 3.19 0 1.225-.235 2.288-.699 3.191a6.075 6.075 0 01-1.83 2.224 7.961 7.961 0 01-2.695 1.288c-1.019.282-2.107.42-3.259.42h-1.177a1.618 1.618 0 00-1.618 1.617v3.891a1.618 1.618 0 01-1.617 1.615h-1.657zm3.273-12.511c0 .893.725 1.617 1.618 1.617h.878c2.662 0 3.993-1.118 3.993-3.353 0-1.095-.346-1.869-1.034-2.322-.666-.45-1.651-.675-2.96-.675h-.877a1.618 1.618 0 00-1.618 1.615v3.118zM33.95 51.73a1.617 1.617 0 01-1.615-1.615V32.334a1.614 1.614 0 011.615-1.618h5.64c1.126 0 2.162.087 3.112.256.973.154 1.812.433 2.519.84.706.41 1.259.947 1.656 1.613.42.665.63 1.502.63 2.513 0 .474-.077.947-.23 1.418a3.936 3.936 0 01-.666 1.321 4.754 4.754 0 01-2.755 1.792.08.08 0 00-.058.077c0 .038.025.071.064.076 1.512.285 2.662.82 3.445 1.603.796.793 1.193 1.902 1.193 3.32 0 1.075-.21 1.996-.63 2.772a5.513 5.513 0 01-1.753 1.932 8.705 8.705 0 01-2.652 1.13 14.02 14.02 0 01-3.246.355l-6.269-.003zm3.254-14.185c0 .893.724 1.615 1.617 1.615h.538c1.19 0 2.053-.225 2.583-.676.53-.45.793-1.085.793-1.902 0-.773-.274-1.32-.827-1.643-.53-.346-1.369-.517-2.518-.517h-.569a1.618 1.618 0 00-1.617 1.618v1.505zm0 8.864c0 .893.724 1.615 1.617 1.615h.999c2.608 0 3.91-.944 3.91-2.836 0-.922-.319-1.59-.962-1.997-.616-.41-1.6-.614-2.948-.614h-.999a1.618 1.618 0 00-1.617 1.618v2.214zM3.555 0C1.61 0 0 1.61 0 3.555v34.917a3.584 3.584 0 003.555 3.558h17.46a1.618 1.618 0 001.613-1.617 1.618 1.618 0 00-1.613-1.613H3.555c-.2 0-.32-.128-.32-.328V3.558c0-.2.12-.32.32-.32h34.917c.2 0 .325.12.325.32v17.457a1.617 1.617 0 003.236 0V3.555A3.583 3.583 0 0038.477 0H3.555zm36.863 19.397a1.617 1.617 0 00-.003 3.233h17.462c.2 0 .32.128.32.328v34.917c0 .2-.12.32-.32.32H22.961c-.198 0-.326-.12-.326-.32V40.418a1.617 1.617 0 00-3.235 0V57.88a3.583 3.583 0 003.555 3.553h34.922c1.946 0 3.556-1.61 3.556-3.556V22.961a3.584 3.584 0 00-3.556-3.558l-17.46-.006z" fill="#000"/></g><defs><clipPath id="a"><path fill="#fff" d="M0 0H61.433V61.433H0z"/></clipPath></defs></svg>