<svg width="62" height="62" fill="none" xmlns="http://www.w3.org/2000/svg"><g clip-path="url(#a)"><path d="M30.718 12.288c-8.19 0-13.308 4.093-15.358 12.285 3.07-4.095 6.655-5.63 10.75-4.606 2.338.582 4.008 2.277 5.859 4.156 3.01 3.056 6.496 6.593 14.108 6.593 8.19 0 13.308-4.094 15.358-12.287-3.071 4.097-6.656 5.632-10.75 4.608-2.338-.583-4.007-2.277-5.86-4.156-3.008-3.056-6.493-6.593-14.107-6.593zM15.36 30.716c-8.19 0-13.309 4.095-15.358 12.288 3.07-4.097 6.655-5.632 10.75-4.608 2.337.583 4.008 2.277 5.858 4.156 3.012 3.056 6.497 6.593 14.108 6.593 8.191 0 13.31-4.094 15.359-12.285-3.072 4.095-6.656 5.63-10.75 4.606-2.338-.582-4.007-2.278-5.86-4.156-3.009-3.056-6.493-6.594-14.107-6.594z" fill="#38BDF8"/></g><defs><clipPath id="a"><path fill="#fff" d="M0 0H61.433V61.433H0z"/></clipPath></defs></svg>