<svg xmlns="http://www.w3.org/2000/svg" version="1.1" xmlns:xlink="http://www.w3.org/1999/xlink" width="1000" height="1000"><style>
    #light-icon {
      display: inline;
    }
    #dark-icon {
      display: none;
    }

    @media (prefers-color-scheme: dark) {
      #light-icon {
        display: none;
      }
      #dark-icon {
        display: inline;
      }
    }
  </style><g id="light-icon"><svg xmlns="http://www.w3.org/2000/svg" version="1.1" xmlns:xlink="http://www.w3.org/1999/xlink" width="1000" height="1000"><g clip-path="url(#SvgjsClipPath1492)"><rect width="1000" height="1000" fill="#ffffff"></rect><g transform="matrix(1.3717421124828533,0,0,1.3717421124828533,0,0)"><svg xmlns="http://www.w3.org/2000/svg" version="1.1" xmlns:xlink="http://www.w3.org/1999/xlink" width="729" height="729"><svg width="729" height="729" fill="none" xmlns="http://www.w3.org/2000/svg"><g clip-path="url(#a)"><mask id="b" style="mask-type:luminance" maskUnits="userSpaceOnUse" x="0" y="0" width="729" height="729"><path d="M729 0H0v729h729V0z" fill="#fff"></path></mask><g mask="url(#b)"><path d="M140.841 507.82c-38.186-1.983-57.527 25.788-57.527 56.039s5.951 41.657 23.804 53.063c9.919 6.447 21.325 9.919 33.723 9.919s19.341-1.488 33.722-9.919c15.374-8.926 95.217-136.873 95.217-136.873 5.951 31.243 46.12 49.592 72.9 50.088 41.657.992 91.744-33.227 57.03-69.925 3.472 30.747-18.845 44.137-49.096 45.625-38.185 1.983-70.916-41.657-54.551-65.957l2.48-4.464 13.886-18.845H472.61l21.821 209.278h61.989s-7.438-18.349-47.112-229.61c-40.169-211.757-9.918-292.592-8.43-295.568L366.484 294.08c-7.439-2.48-15.374-3.472-23.309-3.472-45.128 0-85.297 25.788-83.314 81.331 0 8.43 2.976 16.365 5.455 24.3H218.7l20.829 20.332h34.714l.992.992c-4.96 6.943-8.431 14.878-10.911 23.308 0 0-94.224 153.735-108.606 157.702 0 0-13.885 4.96-28.763 0-14.877-5.455-21.82-18.844-21.324-34.714.991-32.73 22.812-36.698 34.714-37.194 17.357-2.479 39.177 19.341 39.177 19.341s0-36.202-38.185-38.186h-.496zm163.157-123.979l-6.943 9.422c-8.926-8.926-16.365-21.324-14.877-34.714 2.975-23.308 20.332-45.625 48.104-48.104 7.438-.496 10.91-.496 23.804.992l-50.584 72.404h.496zm21.324 12.894l9.919-14.382 7.439-10.91 35.706-52.568c16.365 10.415 32.73 26.78 21.82 47.113 23.804-25.292 10.91-45.625-11.902-60.998l78.355-114.557s-13.39 50.087 1.984 206.798H325.322v-.496z" fill="#000"></path></g><path d="M538.815 350.515s-32.334 23.407-29.953 57.229c0 0 2.132 28.763 20.085 34.218 17.952 5.456 42.896-5.058 42.896-22.564 0 0 3.521 30.003 40.319 21.771 36.797-8.232 19.737-69.627 2.132-90.654 0 0 17.952 60.998-10.315 71.363-23.259 8.48-30.747-48.352-30.747-48.352s-6.348 59.014-34.268 49.344c-27.92-9.671-.198-72.355-.198-72.355h.049z" fill="#000"></path></g><defs><clipPath id="a"><path fill="#fff" d="M0 0H729V729H0z"></path></clipPath><clipPath id="SvgjsClipPath1492"><rect width="1000" height="1000" x="0" y="0" rx="0" ry="0"></rect></clipPath></defs></svg></svg></g></g></svg></g><g id="dark-icon"><svg xmlns="http://www.w3.org/2000/svg" version="1.1" xmlns:xlink="http://www.w3.org/1999/xlink" width="1000" height="1000"><g clip-path="url(#SvgjsClipPath1493)"><rect width="1000" height="1000" fill="#ffffff"></rect><g transform="matrix(0.9602194787379973,0,0,0.9602194787379973,150,150)"><svg xmlns="http://www.w3.org/2000/svg" version="1.1" xmlns:xlink="http://www.w3.org/1999/xlink" width="729" height="729"><svg width="729" height="729" fill="none" xmlns="http://www.w3.org/2000/svg"><g clip-path="url(#a)"><mask id="b" style="mask-type:luminance" maskUnits="userSpaceOnUse" x="0" y="0" width="729" height="729"><path d="M729 0H0v729h729V0z" fill="#fff"></path></mask><g mask="url(#b)"><path d="M140.841 507.82c-38.186-1.983-57.527 25.788-57.527 56.039s5.951 41.657 23.804 53.063c9.919 6.447 21.325 9.919 33.723 9.919s19.341-1.488 33.722-9.919c15.374-8.926 95.217-136.873 95.217-136.873 5.951 31.243 46.12 49.592 72.9 50.088 41.657.992 91.744-33.227 57.03-69.925 3.472 30.747-18.845 44.137-49.096 45.625-38.185 1.983-70.916-41.657-54.551-65.957l2.48-4.464 13.886-18.845H472.61l21.821 209.278h61.989s-7.438-18.349-47.112-229.61c-40.169-211.757-9.918-292.592-8.43-295.568L366.484 294.08c-7.439-2.48-15.374-3.472-23.309-3.472-45.128 0-85.297 25.788-83.314 81.331 0 8.43 2.976 16.365 5.455 24.3H218.7l20.829 20.332h34.714l.992.992c-4.96 6.943-8.431 14.878-10.911 23.308 0 0-94.224 153.735-108.606 157.702 0 0-13.885 4.96-28.763 0-14.877-5.455-21.82-18.844-21.324-34.714.991-32.73 22.812-36.698 34.714-37.194 17.357-2.479 39.177 19.341 39.177 19.341s0-36.202-38.185-38.186h-.496zm163.157-123.979l-6.943 9.422c-8.926-8.926-16.365-21.324-14.877-34.714 2.975-23.308 20.332-45.625 48.104-48.104 7.438-.496 10.91-.496 23.804.992l-50.584 72.404h.496zm21.324 12.894l9.919-14.382 7.439-10.91 35.706-52.568c16.365 10.415 32.73 26.78 21.82 47.113 23.804-25.292 10.91-45.625-11.902-60.998l78.355-114.557s-13.39 50.087 1.984 206.798H325.322v-.496z" fill="#000"></path></g><path d="M538.815 350.515s-32.334 23.407-29.953 57.229c0 0 2.132 28.763 20.085 34.218 17.952 5.456 42.896-5.058 42.896-22.564 0 0 3.521 30.003 40.319 21.771 36.797-8.232 19.737-69.627 2.132-90.654 0 0 17.952 60.998-10.315 71.363-23.259 8.48-30.747-48.352-30.747-48.352s-6.348 59.014-34.268 49.344c-27.92-9.671-.198-72.355-.198-72.355h.049z" fill="#000"></path></g><defs><clipPath id="a"><path fill="#fff" d="M0 0H729V729H0z"></path></clipPath><clipPath id="SvgjsClipPath1493"><rect width="1000" height="1000" x="0" y="0" rx="0" ry="0"></rect></clipPath></defs></svg></svg></g></g></svg></g></svg>